{
   "accessors" : [
      {
         "bufferView" : 0,
         "byteOffset" : 0,
         "componentType" : 5123,
         "count" : 66888,
         "max" : [ 64421 ],
         "min" : [ 0 ],
         "name" : "buffer-0-group-0-mesh-0-indices",
         "type" : "SCALAR"
      },
      {
         "bufferView" : 2,
         "byteOffset" : 0,
         "componentType" : 5126,
         "count" : 64422,
         "max" : [ 0.05010119825601578, 0.09977740049362183, 0.02515549957752228 ],
         "min" : [ -0.1130189970135689, -0.04290470108389854, -0.1089179962873459 ],
         "name" : "buffer-0-group-0-mesh-0-position",
         "type" : "VEC3"
      },
      {
         "bufferView" : 2,
         "byteOffset" : 773064,
         "componentType" : 5126,
         "count" : 64422,
         "max" : [ 0.9996500015258789, 0.9999380111694336, 1 ],
         "min" : [ -0.9996169805526733, -0.9999849796295166, -1 ],
         "name" : "buffer-0-group-0-mesh-0-normal",
         "type" : "VEC3"
      },
      {
         "bufferView" : 1,
         "byteOffset" : 0,
         "componentType" : 5126,
         "count" : 64422,
         "max" : [ 3.230180025100708, 3.123519897460938 ],
         "min" : [ -3.18572998046875, -3.926500082015991 ],
         "name" : "buffer-0-group-0-mesh-0-texcoord",
         "type" : "VEC2"
      },
      {
         "bufferView" : 0,
         "byteOffset" : 133776,
         "componentType" : 5123,
         "count" : 42942,
         "max" : [ 42101 ],
         "min" : [ 0 ],
         "name" : "buffer-0-group-1-mesh-0-indices",
         "type" : "SCALAR"
      },
      {
         "bufferView" : 2,
         "byteOffset" : 1546128,
         "componentType" : 5126,
         "count" : 42102,
         "max" : [ 0, 0.02110590040683746, 0.009358920156955719 ],
         "min" : [ -0.09077420085668564, -0.02577799931168556, -0.09845279902219772 ],
         "name" : "buffer-0-group-1-mesh-0-position",
         "type" : "VEC3"
      },
      {
         "bufferView" : 2,
         "byteOffset" : 2051352,
         "componentType" : 5126,
         "count" : 42102,
         "max" : [ 0.9999390244483948, 0.9999899864196777, 0.9996770024299622 ],
         "min" : [ -0.9990699887275696, -0.9998739957809448, -0.9988909959793091 ],
         "name" : "buffer-0-group-1-mesh-0-normal",
         "type" : "VEC3"
      },
      {
         "bufferView" : 1,
         "byteOffset" : 515376,
         "componentType" : 5126,
         "count" : 42102,
         "max" : [ 2.665800094604492, 2.686650037765503 ],
         "min" : [ -2.717080116271973, -2.518709897994995 ],
         "name" : "buffer-0-group-1-mesh-0-texcoord",
         "type" : "VEC2"
      }
   ],
   "asset" : {
      "generator" : "Obj2GltfConverter",
      "version" : "2.0"
   },
   "bufferViews" : [
      {
         "buffer" : 0,
         "byteLength" : 219660,
         "byteOffset" : 0,
         "name" : "buffer-0-bufferview-ushort",
         "target" : 34963
      },
      {
         "buffer" : 0,
         "byteLength" : 852192,
         "byteOffset" : 219664,
         "byteStride" : 8,
         "name" : "buffer-0-bufferview-vec2",
         "target" : 34962
      },
      {
         "buffer" : 0,
         "byteLength" : 2556576,
         "byteOffset" : 1071864,
         "byteStride" : 12,
         "name" : "buffer-0-bufferview-vec3",
         "target" : 34962
      },
      {
         "buffer" : 0,
         "byteLength" : 1,
         "byteOffset" : 0,
         "name" : "buffer-0-bufferview-vec4"
      }
   ],
   "buffers" : [
      {
         "byteLength" : 3628440,
         "name" : "buffer-0",
         "uri" : "Brain.bin"
      }
   ],
   "materials" : [
      {
         "alphaMode" : "OPAQUE",
         "doubleSided" : true,
         "name" : "FrontColor",
         "pbrMetallicRoughness" : {
            "baseColorFactor" : [ 0.890196, 0.8823530000000001, 0.870588, 1 ],
            "metallicFactor" : 0,
            "roughnessFactor" : 0.9699476628648295
         }
      },
      {
         "alphaMode" : "OPAQUE",
         "doubleSided" : true,
         "name" : "Color_A06",
         "pbrMetallicRoughness" : {
            "baseColorFactor" : [ 0.8, 0, 0, 1 ],
            "metallicFactor" : 0,
            "roughnessFactor" : 0.9699476628648295
         }
      }
   ],
   "meshes" : [
      {
         "name" : "buffer-0-mesh-0",
         "primitives" : [
            {
               "attributes" : {
                  "NORMAL" : 2,
                  "POSITION" : 1,
                  "TEXCOORD_0" : 3
               },
               "indices" : 0,
               "material" : 0,
               "mode" : 4
            },
            {
               "attributes" : {
                  "NORMAL" : 6,
                  "POSITION" : 5,
                  "TEXCOORD_0" : 7
               },
               "indices" : 4,
               "material" : 1,
               "mode" : 4
            }
         ]
      }
   ],
   "nodes" : [
      {
         "mesh" : 0,
         "name" : "node-0"
      }
   ],
   "scenes" : [
      {
         "name" : "scene-0",
         "nodes" : [ 0 ]
      }
   ]
}
